<?xml version="1.0" standalone="no"?>
<!DOCTYPE svg PUBLIC "-//W3C//DTD SVG 20010904//EN"
 "http://www.w3.org/TR/2001/REC-SVG-20010904/DTD/svg10.dtd">
<svg version="1.0" xmlns="http://www.w3.org/2000/svg"
 width="512.000000pt" height="512.000000pt" viewBox="0 0 512.000000 512.000000"
 preserveAspectRatio="xMidYMid meet">
<metadata>
Created by potrace 1.11, written by Peter Selinger 2001-2013
</metadata>
<g transform="translate(0.000000,512.000000) scale(0.100000,-0.100000)"
fill="#000000" stroke="none">
<path d="M4600 5083 c-216 -24 -381 -200 -393 -419 -5 -84 13 -159 57 -240
l34 -60 -222 -312 c-121 -171 -261 -368 -311 -438 -215 -302 -379 -534 -425
-599 -109 -154 -105 -150 -131 -147 -168 18 -244 8 -343 -46 l-52 -28 -258
197 c-141 108 -260 199 -262 202 -3 3 1 27 9 54 43 144 -3 315 -116 426 -167
165 -442 168 -607 7 -90 -88 -130 -177 -136 -302 -4 -87 13 -156 56 -233 l28
-51 -32 -36 c-17 -21 -94 -119 -171 -219 -77 -101 -221 -287 -320 -415 -99
-128 -189 -245 -200 -260 -17 -23 -112 -144 -119 -151 -1 -1 -24 4 -51 11
-243 63 -489 -86 -544 -329 -12 -54 -8 -171 7 -220 49 -156 178 -272 336 -305
60 -12 155 -9 211 8 131 39 245 149 290 278 22 62 28 187 11 250 -14 54 -50
129 -66 139 -14 9 2 30 274 380 13 17 144 185 291 375 177 229 272 344 283
343 9 -1 47 -7 85 -14 89 -17 187 -1 272 44 l62 33 79 -61 c43 -33 146 -111
227 -174 82 -62 156 -119 165 -127 10 -7 25 -20 35 -27 18 -12 18 -17 5 -63
-68 -231 81 -484 317 -540 187 -44 377 33 479 194 81 128 83 321 6 452 -17 29
-29 58 -27 64 3 6 89 130 193 276 103 146 253 357 333 470 79 113 148 207 153
208 4 2 8 8 8 13 0 5 26 45 58 89 31 43 74 103 94 132 154 220 226 313 239
309 41 -10 80 -14 139 -14 345 -2 550 393 357 685 -86 128 -254 207 -407 191z
m154 -280 c59 -41 80 -85 80 -163 0 -118 -74 -194 -190 -195 -70 0 -105 15
-151 63 -95 100 -48 280 84 322 50 17 133 4 177 -27z m-2814 -1253 c76 -21
132 -95 136 -179 3 -75 -26 -135 -86 -176 -38 -25 -54 -29 -110 -30 -78 0
-122 23 -166 87 -25 36 -29 51 -29 109 0 59 4 73 30 110 50 71 139 102 225 79z
m1250 -945 c62 -43 84 -87 85 -165 0 -58 -4 -72 -29 -108 -44 -64 -88 -87
-167 -87 -56 0 -72 4 -107 29 -107 73 -121 217 -32 306 45 45 83 59 158 55 38
-2 63 -10 92 -30z m-2579 -826 c43 -25 89 -80 100 -123 23 -86 -14 -181 -90
-228 -52 -32 -152 -32 -204 1 -142 88 -117 311 40 361 37 12 124 6 154 -11z"/>
<path d="M110 268 c-94 -47 -96 -176 -3 -214 44 -19 73 -17 106 5 100 65 81
188 -34 221 -20 6 -39 3 -69 -12z"/>
<path d="M901 263 c-55 -27 -75 -96 -45 -158 33 -70 -137 -65 2104 -65 2241 0
2071 -5 2104 65 20 42 20 68 0 110 -33 70 138 65 -2106 65 -1867 0 -2026 -2
-2057 -17z"/>
</g>
</svg>
